<svg width="201" height="202" viewBox="0 0 201 202" fill="none" xmlns="http://www.w3.org/2000/svg">
<path d="M100.705 0.739014C102 4.14928 103.675 7.43235 105.168 10.76L114.631 31.7755L130.428 67.3336L133.96 75.1551C134.16 75.6106 134.429 76.6384 134.716 76.9774C134.947 77.2514 136.079 77.6164 136.433 77.7918L146.463 82.9955C165.788 93.9938 181.558 110.166 191.17 130.295C200.099 148.995 202.816 170.319 198.761 190.64C198.019 194.359 197.146 198.121 195.883 201.701L197.183 187.709C197.743 174.997 196.066 161.889 192.083 149.791C184.683 127.312 170.176 107.669 150.391 94.5724C147.103 92.3961 143.597 90.4798 140.08 88.7037L189.17 197.594L189.234 197.705C188.167 197.291 187.147 196.668 186.125 196.143L180.35 193.117L164.458 184.559L121.335 161.246L106.909 153.455L100.91 150.215L100.556 150.114L12.2735 198.007C12.6288 196.893 13.1728 195.833 13.6528 194.768L16.4678 188.651L25.3464 168.953L45.4445 123.602L60.9512 89.0129C57.9821 90.5078 54.9433 92.0923 52.1302 93.8702C42.14 100.184 33.3303 108.423 26.1085 117.75C10.5476 137.848 2.86144 163.275 3.90703 188.622C4.09004 193.057 4.89832 197.389 5.45425 201.777L5.30208 201.496C4.41529 199.513 3.89862 197.167 3.40029 195.054C2.20151 189.97 1.35857 184.952 0.934929 179.743C0.31451 172.11 0.532703 164.315 1.73378 156.739C2.45361 152.199 3.63811 147.671 5.02093 143.293C8.94736 130.865 15.2005 119.277 23.4997 109.215C28.122 103.611 33.3841 98.585 38.9495 93.9337C44.9597 88.9101 51.7555 84.6399 58.691 81.0109L64.2587 78.3429C64.7713 78.1117 65.6018 77.9134 66.0399 77.6083C66.4513 77.322 74.1225 59.5802 74.9432 57.7582L100.705 0.739014Z" fill="#21CAA6"/>
<path d="M100.604 20.3804L172.183 179.677C169.921 178.701 167.832 177.43 165.666 176.267L153.671 169.739L126.731 155.086L110.139 146.075L106.263 143.976C105.637 143.641 104.871 143.32 104.323 142.875L100.689 45.1867L100.556 44.8941L96.8177 143.018C96.3872 143.447 95.6065 143.722 95.0544 144.007L91.0502 146.1L70.7744 157.02L43.5723 171.856L33.3614 177.419C31.9865 178.147 30.6488 178.951 29.2285 179.588L100.604 20.3804Z" fill="#74659F"/>
</svg>
