<svg width="61" height="62" viewBox="0 0 61 62" fill="none" xmlns="http://www.w3.org/2000/svg">
<path d="M30.63 0.739014C31.0184 1.76209 31.5209 2.74701 31.9687 3.74532L34.8076 10.05L39.5467 20.7174L40.6062 23.0639C40.6665 23.2005 40.7471 23.5088 40.833 23.6105C40.9025 23.6927 41.2422 23.8022 41.3482 23.8548L44.3572 25.416C50.1547 28.7155 54.8857 33.567 57.7693 39.6057C60.4482 45.2157 61.2632 51.613 60.0468 57.7093C59.8242 58.8251 59.5622 59.9538 59.1834 61.0277L59.5731 56.8299C59.7414 53.0165 59.2382 49.0839 58.0434 45.4546C55.8233 38.711 51.471 32.8179 45.5356 28.889C44.5493 28.2361 43.4974 27.6613 42.4422 27.1284L57.1693 59.7956L57.1887 59.8288C56.8684 59.7045 56.5625 59.5178 56.2559 59.3603L54.5234 58.4523L49.7559 55.885L36.8189 48.8911L32.491 46.5537L30.6915 45.5817L30.5852 45.5516L4.10041 59.9194C4.20701 59.5853 4.3702 59.2671 4.51419 58.9477L5.35871 57.1126L8.02228 51.2031L14.0517 37.5979L18.7037 27.2212C17.813 27.6697 16.9013 28.145 16.0574 28.6784C13.0604 30.5727 10.4174 33.0441 8.25092 35.8423C3.58264 41.8717 1.27679 49.4997 1.59047 57.104C1.64537 58.4345 1.88786 59.7341 2.05464 61.0504L2.00898 60.966C1.74295 60.3714 1.58794 59.6675 1.43845 59.0335C1.07881 57.5083 0.82593 56.0031 0.698838 54.4403C0.512712 52.1503 0.57817 49.8118 0.938492 47.5389C1.15444 46.1769 1.50979 44.8185 1.92464 43.5052C3.10257 39.7769 4.97851 36.3004 7.46826 33.2819C8.85495 31.6007 10.4336 30.0928 12.1032 28.6974C13.9063 27.1904 15.945 25.9093 18.0257 24.8206L19.696 24.0202C19.8498 23.9508 20.0989 23.8913 20.2303 23.7998C20.3538 23.7139 22.6551 18.3914 22.9013 17.8448L30.63 0.739014Z" fill="#21CAA6"/>
<path d="M30.5992 6.63141L52.0728 54.4205C51.3942 54.1277 50.7676 53.7463 50.1177 53.3975L46.5193 51.4389L38.4372 47.0432L33.4598 44.3399L32.2968 43.7102C32.1092 43.6095 31.8794 43.5133 31.7148 43.3799L30.6246 14.0733L30.5847 13.9855L29.4633 43.4228C29.3341 43.5515 29.0999 43.634 28.9343 43.7194L27.733 44.3472L21.6503 47.6232L13.4897 52.074L10.4264 53.7431C10.0139 53.9613 9.61261 54.2026 9.18652 54.3938L30.5992 6.63141Z" fill="#74659F"/>
</svg>
